<svg width="20" height="19" viewBox="0 0 20 19" fill="none" xmlns="http://www.w3.org/2000/svg">
<path d="M11.9523 18.413C12.6396 18.413 13.1265 17.8682 13.4798 17.0245L19.7327 1.98633C19.9045 1.58203 20 1.22168 20 0.92285C20 0.35156 19.6181 0 18.9976 0C18.673 0 18.2817 0.0878911 17.8425 0.24609L1.42243 6.03809C0.620524 6.31934 0 6.76758 0 7.40918C0 8.21777 0.668257 8.49023 1.58472 8.74512L6.73985 10.1866C7.35083 10.3624 7.6945 10.3447 8.105 9.99315L18.5775 0.98437C18.7017 0.87891 18.8448 0.89648 18.9403 0.97559C19.0358 1.06348 19.0454 1.19531 18.9308 1.30957L9.18377 10.9864C8.81144 11.3467 8.78281 11.6455 8.96419 12.2344L10.4821 16.875C10.7685 17.7626 11.0644 18.413 11.9523 18.413Z" fill="white"/>
</svg>
